HIERARCHY
ROOT Hips
{
    OFFSET 0.000000 0.000000 0.000000
    CHANNELS 6 Xposition Yposition Zposition Zrotation Xrotation Yrotation
    JOINT Spine
    {
        OFFSET -0.000000 14.517291 0.000000
        CHANNELS 3 Zrotation Xrotation Yrotation
        JOINT Spine1
        {
            OFFSET -0.000000 37.558300 0.000000
            CHANNELS 3 Zrotation Xrotation Yrotation
            JOINT Neck
            {
                OFFSET -0.000000 37.404057 3.400369
                CHANNELS 3 Zrotation Xrotation Yrotation
                JOINT Head
                {
                    OFFSET -0.000000 24.785618 -3.540803
                    CHANNELS 3 Zrotation Xrotation Yrotation
                    End Site
                    {
                        OFFSET -0.000000 35.408028 0.000000
                    }
                }
            }
            JOINT LeftShoulder
            {
                OFFSET 6.992933 33.973492 -0.192664
                CHANNELS 3 Zrotation Xrotation Yrotation
                JOINT LeftArm
                {
                    OFFSET 21.527611 0.000000 0.000000
                    CHANNELS 3 Zrotation Xrotation Yrotation
                    JOINT LeftForeArm
                    {
                        OFFSET 56.353916 0.000000 0.000000
                        CHANNELS 3 Zrotation Xrotation Yrotation
                        JOINT LeftHand
                        {
                            OFFSET 47.774071 0.000000 0.000000
                            CHANNELS 3 Zrotation Xrotation Yrotation
                            End Site
                            {
                                OFFSET 26.556021 0.000000 0.000000
                            }
                        }
                    }
                }
            }
            JOINT RightShoulder
            {
                OFFSET -7.065357 33.973492 -0.192664
                CHANNELS 3 Zrotation Xrotation Yrotation
                JOINT RightArm
                {
                    OFFSET -21.527611 0.000000 0.000000
                    CHANNELS 3 Zrotation Xrotation Yrotation
                    JOINT RightForeArm
                    {
                        OFFSET -56.353916 0.000000 0.000000
                        CHANNELS 3 Zrotation Xrotation Yrotation
                        JOINT RightHand
                        {
                            OFFSET -47.774071 0.000000 0.000000
                            CHANNELS 3 Zrotation Xrotation Yrotation
                            End Site
                            {
                                OFFSET -26.556021 0.000000 0.000000
                            }
                        }
                    }
                }
            }
        }
    }
    JOINT LeftUpLeg
    {
        OFFSET 17.704014 0.000000 0.000000
        CHANNELS 3 Zrotation Xrotation Yrotation
        JOINT LeftLeg
        {
            OFFSET -0.000000 -81.181816 0.000000
            CHANNELS 3 Zrotation Xrotation Yrotation
            JOINT LeftFoot
            {
                OFFSET -0.000000 -62.821102 0.000000
                CHANNELS 3 Zrotation Xrotation Yrotation
                JOINT LeftToeBase
                {
                    OFFSET -0.000000 -11.507608 26.556021
                    CHANNELS 3 Zrotation Xrotation Yrotation
                    End Site
                    {
                        OFFSET -0.000000 0.000000 7.081605
                    }
                }
            }
        }
    }
    JOINT RightUpLeg
    {
        OFFSET -17.704014 0.000000 0.000000
        CHANNELS 3 Zrotation Xrotation Yrotation
        JOINT RightLeg
        {
            OFFSET -0.000000 -81.181816 0.000000
            CHANNELS 3 Zrotation Xrotation Yrotation
            JOINT RightFoot
            {
                OFFSET -0.000000 -62.821102 0.000000
                CHANNELS 3 Zrotation Xrotation Yrotation
                JOINT RightToeBase
                {
                    OFFSET -0.000000 -11.507608 26.556021
                    CHANNELS 3 Zrotation Xrotation Yrotation
                    End Site
                    {
                        OFFSET -0.000000 0.000000 7.081605
                    }
                }
            }
        }
    }
}
MOTION
Frames:    4
Frame Time:    0.008333
8.632095    156.658325    -117.596519    -1.857459    -4.471776    41.451729    1.456320    -2.524011    -0.593852    -13.573487    3.472901    0.202360    -4.033289    -0.676356    -23.623459    21.881994    3.820210    -21.770880    7.586288    5.361224    -23.059782    -29.953545    24.210072    -50.877972    -21.508327    10.321999    -97.468613    -0.062530    -14.657887    -6.962219    -20.165415    -6.866814    -5.235455    6.372792    -17.065193    38.268112    5.807408    4.029605    81.960220    2.364505    -0.442598    27.423775    19.766371    -2.400629    0.545987    -12.290384    30.643343    -18.589125    1.063879    -25.818127    44.013363    0.000000    0.000000    0.000000    -14.560849    -19.096603    -11.956449    8.061876    19.934505    -15.034064    3.580586    11.897291    -14.508302    0.000000    0.000000    0.000000    
8.620733    156.667297    -117.596100    -1.843081    -4.434396    41.440193    1.527223    -2.501057    -0.571189    -13.745610    3.456931    0.213069    -4.004601    -0.655521    -23.628016    21.824659    3.743913    -21.772163    7.529028    5.345803    -23.073627    -30.038761    24.179556    -50.807209    -21.525410    10.364944    -97.437210    -0.010843    -14.625151    -6.941997    -20.262941    -6.904188    -5.271121    6.061413    -17.057331    37.727886    5.462773    4.122386    82.472473    2.079096    -0.160553    27.497499    19.739368    -2.395647    0.567277    -12.296316    30.600338    -18.588255    1.040983    -25.787519    44.003635    0.000000    0.000000    0.000000    -14.593945    -19.123201    -11.962793    8.055291    19.948067    -14.988897    3.596973    11.894440    -14.523946    0.000000    0.000000    0.000000    
8.605073    156.679871    -117.596794    -1.847197    -4.396105    41.435532    1.606594    -2.488756    -0.562252    -13.904515    3.428188    0.216844    -3.982083    -0.605077    -23.643436    21.771858    3.662472    -21.783651    7.482465    5.342443    -23.079760    -30.149021    24.134806    -50.735607    -21.566183    10.428990    -97.379723    0.084031    -14.591063    -6.928002    -20.347939    -6.909262    -5.296326    5.709936    -17.017450    37.203896    5.071736    4.059300    82.953064    1.823919    0.021452    27.593193    19.723738    -2.410480    0.580932    -12.299911    30.554399    -18.590216    1.041806    -25.736691    44.006718    0.000000    0.000000    0.000000    -14.615066    -19.158033    -11.973341    8.059685    19.940048    -14.997154    3.593775    11.916063    -14.525909    0.000000    0.000000    0.000000    
8.590435    156.690720    -117.598763    -1.854311    -4.360208    41.434399    1.696691    -2.480188    -0.568620    -14.060988    3.404729    0.215880    -3.949471    -0.591323    -23.643383    21.678078    3.612588    -21.789371    7.435700    5.345677    -23.044327    -29.764833    24.747740    -50.856945    -20.954029    9.473551    -97.792419    -0.109026    -14.965318    -6.797389    -20.453609    -6.921611    -5.330894    5.444455    -17.034426    36.724319    4.744725    4.044343    83.432098    1.684224    0.227679    27.654112    19.715681    -2.432553    0.583943    -12.320025    30.518047    -18.570623    1.018347    -25.714048    44.005424    0.000000    0.000000    0.000000    -14.636376    -19.190720    -11.996145    8.061672    19.939962    -14.968216    3.590724    11.928211    -14.535507    0.000000    0.000000    0.000000    
